<svg width="91" height="95" viewBox="0 0 91 95" fill="none" xmlns="http://www.w3.org/2000/svg">
<path d="M48.23 19.44V20.77C46.7367 21.0967 45.1267 21.75 43.4 22.73C41.72 23.71 39.9467 25.2967 38.08 27.49L24.92 43.17L28.98 37.36L45.64 63.33C46.2933 64.4033 46.9933 65.2667 47.74 65.92C48.4867 66.5733 49.4667 67.1333 50.68 67.6V69C49.0467 68.9067 47.2267 68.86 45.22 68.86C43.2133 68.8133 41.3933 68.79 39.76 68.79C38.78 68.79 37.59 68.8133 36.19 68.86C34.79 68.86 33.0167 68.9067 30.87 69V67.6C32.7833 67.5067 33.9267 67.25 34.3 66.83C34.72 66.3633 34.5567 65.57 33.81 64.45L23.66 48C23.0067 46.9267 22.4233 46.1333 21.91 45.62C21.3967 45.06 20.8833 44.6867 20.37 44.5C19.8567 44.2667 19.18 44.1267 18.34 44.08V42.61C20.3933 42.5633 22.2133 42.0033 23.8 40.93C25.4333 39.8567 27.2067 38.2233 29.12 36.03L33.25 31.06C35.0233 28.96 36.05 27.1633 36.33 25.67C36.6567 24.13 36.3533 22.94 35.42 22.1C34.5333 21.26 33.1567 20.8167 31.29 20.77V19.44C32.4567 19.4867 33.5533 19.5333 34.58 19.58C35.6533 19.58 36.75 19.6033 37.87 19.65C39.0367 19.65 40.2967 19.65 41.65 19.65C43.0033 19.65 44.2167 19.6267 45.29 19.58C46.41 19.5333 47.39 19.4867 48.23 19.44ZM24.01 19.44V20.84C22.5167 20.8867 21.3733 21.0733 20.58 21.4C19.8333 21.68 19.3433 22.24 19.11 23.08C18.8767 23.8733 18.76 25.1333 18.76 26.86V61.58C18.76 63.26 18.8767 64.52 19.11 65.36C19.39 66.2 19.9033 66.76 20.65 67.04C21.3967 67.32 22.5167 67.5067 24.01 67.6V69C22.75 68.9067 21.1633 68.86 19.25 68.86C17.3367 68.8133 15.4 68.79 13.44 68.79C11.2 68.79 9.07667 68.8133 7.07 68.86C5.11 68.86 3.54667 68.9067 2.38 69V67.6C3.87333 67.5067 4.99333 67.32 5.74 67.04C6.48667 66.76 6.97667 66.2 7.21 65.36C7.49 64.52 7.63 63.26 7.63 61.58V26.86C7.63 25.1333 7.49 23.8733 7.21 23.08C6.97667 22.24 6.46333 21.68 5.67 21.4C4.92333 21.0733 3.82667 20.8867 2.38 20.84V19.44C3.54667 19.4867 5.11 19.5333 7.07 19.58C9.07667 19.6267 11.2 19.65 13.44 19.65C15.4 19.65 17.3367 19.6267 19.25 19.58C21.1633 19.5333 22.75 19.4867 24.01 19.44ZM68.5486 31.83C71.9553 31.83 74.9419 32.46 77.5086 33.72C80.0753 34.98 82.0819 37.01 83.5286 39.81C84.9753 42.61 85.6986 46.32 85.6986 50.94C85.6986 55.56 84.9753 59.27 83.5286 62.07C82.0819 64.8233 80.0753 66.83 77.5086 68.09C74.9419 69.35 71.9553 69.98 68.5486 69.98C65.2353 69.98 62.2719 69.35 59.6586 68.09C57.0919 66.83 55.0619 64.8233 53.5686 62.07C52.1219 59.27 51.3986 55.56 51.3986 50.94C51.3986 46.32 52.1219 42.61 53.5686 39.81C55.0619 37.01 57.0919 34.98 59.6586 33.72C62.2719 32.46 65.2353 31.83 68.5486 31.83ZM68.5486 33.23C66.6819 33.23 65.1186 34.63 63.8586 37.43C62.5986 40.1833 61.9686 44.6867 61.9686 50.94C61.9686 57.1933 62.5986 61.6967 63.8586 64.45C65.1186 67.2033 66.6819 68.58 68.5486 68.58C70.4619 68.58 72.0253 67.2033 73.2386 64.45C74.4986 61.6967 75.1286 57.1933 75.1286 50.94C75.1286 44.6867 74.4986 40.1833 73.2386 37.43C72.0253 34.63 70.4619 33.23 68.5486 33.23Z" fill="white"/>
<rect x="1" y="85" width="90" height="10" rx="2" fill="white"/>
</svg>
