<svg width="116" height="49" viewBox="0 0 116 49" fill="none" xmlns="http://www.w3.org/2000/svg">
<path d="M10.15 9.35C10.4167 9.88333 10.5667 10.3833 10.6 10.85C10.6667 11.3167 10.7 12.1667 10.7 13.4C10.7 14.6333 10.2833 18.1 9.45 23.8L9 26.7C13.5 23 17.3 19.4167 20.4 15.95C23.5 12.45 25.6833 9.48333 26.95 7.05C28.05 8.98333 28.6 10.8833 28.6 12.75C28.6 14.5833 27.65 16.4667 25.75 18.4C23.8833 20.3333 21.05 22.7 17.25 25.5C19.5833 32.8667 22.2 38.5667 25.1 42.6C26.3333 44.3 27.9 46.15 29.8 48.15C28.5667 48.4833 27.3333 48.65 26.1 48.65C24.8667 48.65 23.6 48.2667 22.3 47.5C21 46.7333 19.8667 45.8 18.9 44.7C17.9667 43.6 17 42.1333 16 40.3C14.5667 37.6 13.0167 34.05 11.35 29.65C10.4167 30.35 9.4 31.0667 8.3 31.8C7.7 36.7667 7.4 40.5333 7.4 43.1C7.4 45.6333 7.63333 47.45 8.1 48.55C5.26667 47.8167 3.33333 46.85 2.3 45.65C1.26667 44.4167 0.75 42.7167 0.75 40.55C0.75 39.2833 1.1 36.0667 1.8 30.9C3.03333 22.3333 3.65 15.7 3.65 11C3.65 10 3.58333 8.63333 3.45 6.9C5.98333 7.03333 7.83333 7.43333 9 8.1C9.5 8.36666 9.88333 8.78333 10.15 9.35ZM48.5949 21.95C46.4283 21.95 44.4949 23.4167 42.7949 26.35C41.0949 29.25 40.2449 32.15 40.2449 35.05C40.2449 41.1167 41.8116 44.15 44.9449 44.15C47.1783 44.15 48.9949 42.7 50.3949 39.8C51.7949 36.8667 52.4949 33.5833 52.4949 29.95C52.4949 24.6167 51.1949 21.95 48.5949 21.95ZM51.6949 18.3C53.6949 18.3 55.3949 19.2833 56.7949 21.25C58.1949 23.2167 58.8949 25.85 58.8949 29.15C58.8949 32.85 58.1449 36.25 56.6449 39.35C54.9783 42.85 52.6116 45.2667 49.5449 46.6C47.8116 47.3667 45.9116 47.75 43.8449 47.75C40.9449 47.75 38.4116 46.6333 36.2449 44.4C34.1116 42.1333 33.0449 38.9 33.0449 34.7C33.0449 30.4667 34.0783 26.75 36.1449 23.55C38.2116 20.3167 40.9449 18.2833 44.3449 17.45C44.7116 17.45 45.0449 17.5667 45.3449 17.8C45.6783 18 45.8449 18.2167 45.8449 18.45C42.4783 20.7833 40.4616 24.0333 39.7949 28.2C40.4949 26.3333 41.3449 24.7167 42.3449 23.35C43.3783 21.9833 44.4449 20.95 45.5449 20.25C47.6449 18.95 49.6949 18.3 51.6949 18.3ZM75.6043 21.1C74.671 21.1 73.8376 21.4167 73.1043 22.05C72.371 22.65 72.0043 23.5167 72.0043 24.65C72.0043 25.7833 72.3876 26.85 73.1543 27.85C73.9543 28.85 74.921 29.7333 76.0543 30.5C77.1876 31.2333 78.321 32 79.4543 32.8C80.621 33.5667 81.6376 34.5333 82.5043 35.7C83.371 36.8333 83.8543 38.1 83.9543 39.5C83.9543 41.9 82.921 43.9167 80.8543 45.55C78.7876 47.1833 76.221 48 73.1543 48C70.0876 48 67.671 47.3833 65.9043 46.15C64.171 44.9167 63.3043 43.5 63.3043 41.9C63.3043 40.3 63.7876 39.0167 64.7543 38.05C65.7543 37.05 66.9876 36.55 68.4543 36.55C69.221 36.55 69.9376 36.6833 70.6043 36.95C69.5376 38.0833 69.0043 39.2833 69.0043 40.55C69.0043 41.8167 69.3543 42.8333 70.0543 43.6C70.7543 44.3667 71.7043 44.75 72.9043 44.75C74.1043 44.75 75.1043 44.45 75.9043 43.85C76.7376 43.2167 77.1543 42.4167 77.1543 41.45C77.1543 40.45 76.871 39.5667 76.3043 38.8C75.7376 38.0333 75.021 37.3667 74.1543 36.8C73.321 36.2 72.4043 35.5333 71.4043 34.8C70.4043 34.0667 69.471 33.3333 68.6043 32.6C67.771 31.8333 67.071 30.8833 66.5043 29.75C65.9376 28.5833 65.6543 27.3167 65.6543 25.95C65.6543 23.5833 66.621 21.65 68.5543 20.15C70.521 18.6167 72.9543 17.85 75.8543 17.85C78.7876 17.85 80.921 18.4167 82.2543 19.55C83.621 20.6833 84.3043 22.0167 84.3043 23.55C84.3043 25.05 83.821 26.3333 82.8543 27.4C81.921 28.4667 80.7043 29 79.2043 29C78.471 29 77.6376 28.85 76.7043 28.55C77.4376 27.9167 78.0043 27.2 78.4043 26.4C78.8043 25.5667 79.0043 24.75 79.0043 23.95C79.0043 23.15 78.671 22.4833 78.0043 21.95C77.3376 21.3833 76.5376 21.1 75.6043 21.1ZM96.902 31.55C98.002 27.7833 99.7186 24.6167 102.052 22.05C104.385 19.45 106.552 18.15 108.552 18.15C110.585 18.15 112.019 18.7667 112.852 20C113.719 21.2 114.152 22.85 114.152 24.95C114.152 27.0167 113.819 29.9333 113.152 33.7C112.519 37.4667 112.202 40.2167 112.202 41.95C112.202 43.65 112.419 44.9 112.852 45.7C113.285 46.4667 114.019 47.1333 115.052 47.7C114.619 47.7333 114.002 47.75 113.202 47.75C110.402 47.75 108.402 47.3167 107.202 46.45C106.035 45.5833 105.452 44.0667 105.452 41.9C105.452 40.6667 105.785 38.2667 106.452 34.7C107.119 31.1 107.452 28.4167 107.452 26.65C107.452 24.45 106.785 23.35 105.452 23.35C104.652 23.35 103.769 23.8 102.802 24.7C101.835 25.6 100.902 26.8333 100.002 28.4C99.1353 29.9333 98.402 31.9167 97.802 34.35C97.202 36.7833 96.902 39.2167 96.902 41.65C96.902 44.05 97.002 45.8333 97.202 47C96.1353 47.0667 95.4353 47.1 95.102 47.1C93.202 47.1 91.8353 46.7833 91.002 46.15C90.1686 45.4833 89.752 44.4333 89.752 43C89.752 41.5667 90.0353 38.8333 90.602 34.8C92.402 22.4 93.302 12.9833 93.302 6.55C93.302 3.65 93.102 1.7 92.702 0.699997C95.202 1.36667 96.902 2.38333 97.802 3.75C98.7353 5.08333 99.202 6.98333 99.202 9.45C99.202 11.1167 98.8686 14.6167 98.202 19.95C97.5686 25.2833 97.1353 29.15 96.902 31.55Z" fill="white"/>
</svg>
