<svg width="150" height="150" viewBox="0 0 150 150" fill="none" xmlns="http://www.w3.org/2000/svg">
<rect width="150" height="150" rx="20" fill="white"/>
<path d="M77.23 41.44V42.77C75.7367 43.0967 74.1267 43.75 72.4 44.73C70.72 45.71 68.9467 47.2967 67.08 49.49L53.92 65.17L57.98 59.36L74.64 85.33C75.2933 86.4033 75.9933 87.2667 76.74 87.92C77.4867 88.5733 78.4667 89.1333 79.68 89.6V91C78.0467 90.9067 76.2267 90.86 74.22 90.86C72.2133 90.8133 70.3933 90.79 68.76 90.79C67.78 90.79 66.59 90.8133 65.19 90.86C63.79 90.86 62.0167 90.9067 59.87 91V89.6C61.7833 89.5067 62.9267 89.25 63.3 88.83C63.72 88.3633 63.5567 87.57 62.81 86.45L52.66 70C52.0067 68.9267 51.4233 68.1333 50.91 67.62C50.3967 67.06 49.8833 66.6867 49.37 66.5C48.8567 66.2667 48.18 66.1267 47.34 66.08V64.61C49.3933 64.5633 51.2133 64.0033 52.8 62.93C54.4333 61.8567 56.2067 60.2233 58.12 58.03L62.25 53.06C64.0233 50.96 65.05 49.1633 65.33 47.67C65.6567 46.13 65.3533 44.94 64.42 44.1C63.5333 43.26 62.1567 42.8167 60.29 42.77V41.44C61.4567 41.4867 62.5533 41.5333 63.58 41.58C64.6533 41.58 65.75 41.6033 66.87 41.65C68.0367 41.65 69.2967 41.65 70.65 41.65C72.0033 41.65 73.2167 41.6267 74.29 41.58C75.41 41.5333 76.39 41.4867 77.23 41.44ZM53.01 41.44V42.84C51.5167 42.8867 50.3733 43.0733 49.58 43.4C48.8333 43.68 48.3433 44.24 48.11 45.08C47.8767 45.8733 47.76 47.1333 47.76 48.86V83.58C47.76 85.26 47.8767 86.52 48.11 87.36C48.39 88.2 48.9033 88.76 49.65 89.04C50.3967 89.32 51.5167 89.5067 53.01 89.6V91C51.75 90.9067 50.1633 90.86 48.25 90.86C46.3367 90.8133 44.4 90.79 42.44 90.79C40.2 90.79 38.0767 90.8133 36.07 90.86C34.11 90.86 32.5467 90.9067 31.38 91V89.6C32.8733 89.5067 33.9933 89.32 34.74 89.04C35.4867 88.76 35.9767 88.2 36.21 87.36C36.49 86.52 36.63 85.26 36.63 83.58V48.86C36.63 47.1333 36.49 45.8733 36.21 45.08C35.9767 44.24 35.4633 43.68 34.67 43.4C33.9233 43.0733 32.8267 42.8867 31.38 42.84V41.44C32.5467 41.4867 34.11 41.5333 36.07 41.58C38.0767 41.6267 40.2 41.65 42.44 41.65C44.4 41.65 46.3367 41.6267 48.25 41.58C50.1633 41.5333 51.75 41.4867 53.01 41.44ZM97.5486 53.83C100.955 53.83 103.942 54.46 106.509 55.72C109.075 56.98 111.082 59.01 112.529 61.81C113.975 64.61 114.699 68.32 114.699 72.94C114.699 77.56 113.975 81.27 112.529 84.07C111.082 86.8233 109.075 88.83 106.509 90.09C103.942 91.35 100.955 91.98 97.5486 91.98C94.2353 91.98 91.2719 91.35 88.6586 90.09C86.0919 88.83 84.0619 86.8233 82.5686 84.07C81.1219 81.27 80.3986 77.56 80.3986 72.94C80.3986 68.32 81.1219 64.61 82.5686 61.81C84.0619 59.01 86.0919 56.98 88.6586 55.72C91.2719 54.46 94.2353 53.83 97.5486 53.83ZM97.5486 55.23C95.6819 55.23 94.1186 56.63 92.8586 59.43C91.5986 62.1833 90.9686 66.6867 90.9686 72.94C90.9686 79.1933 91.5986 83.6967 92.8586 86.45C94.1186 89.2033 95.6819 90.58 97.5486 90.58C99.4619 90.58 101.025 89.2033 102.239 86.45C103.499 83.6967 104.129 79.1933 104.129 72.94C104.129 66.6867 103.499 62.1833 102.239 59.43C101.025 56.63 99.4619 55.23 97.5486 55.23Z" fill="#181B21"/>
<rect x="30" y="107" width="90" height="10" rx="2" fill="#181B21"/>
</svg>
